<svg id="Calque_1" data-name="Calque 1" xmlns="http://www.w3.org/2000/svg" viewBox="0 0 151.73 166.12"><defs><style>.cls-1{font-size:134.35px;fill:#f5df4d;font-family:InkFree, Ink Free;}.cls-2{fill:ivory;}.cls-3{fill:#fff;}</style></defs><text class="cls-1" transform="translate(0 122.06) scale(1.96 1)">C</text><path class="cls-2" d="M448.08,370.19a22.19,22.19,0,0,1-7,8.57,27,27,0,0,1-11.65,5,35.71,35.71,0,0,1-9.27.75c-2.35-.2-3.63-.87-3.83-2a7.28,7.28,0,0,1,.74-3.22c.6-1.55,1.13-2.37,1.6-2.46.71-.13,1.09,0,1.14.25a1,1,0,0,1-.19.68,1.06,1.06,0,0,0-.18.77c0,.18.45.38,1.25.6a15.29,15.29,0,0,0,3.58.35,30,30,0,0,0,5.64-.59,19.87,19.87,0,0,0,8.77-3.74,16.52,16.52,0,0,0,5.11-6.28,11,11,0,0,0,1-6.44q-.7-3.83-4.87-5.91t-12.74-3.06q-8.34-1.12-12.93-2.07a22,22,0,0,1-7.71-3,8.35,8.35,0,0,1-3.78-5.7q-.9-4.89,3.71-10.67a44.43,44.43,0,0,1,12.1-10.24A44,44,0,0,1,432.94,316q3.54-.66,4.06.72a18.11,18.11,0,0,1,.85,3.15c.16.89-.08,1.39-.73,1.51a2.1,2.1,0,0,1-1.07-.12c-.43-.13-.79-.23-1.11-.3s-.81-.09-1.3-.13a9.25,9.25,0,0,0-2.06.2A33.19,33.19,0,0,0,421,325.5a44.82,44.82,0,0,0-10.09,8q-4.06,4.43-3.47,7.72a6.13,6.13,0,0,0,3,4.23,18.35,18.35,0,0,0,6.39,2.26q3.87.72,10.87,1.53,10.23,1.05,15.52,3.75t6.22,7.86A15.61,15.61,0,0,1,448.08,370.19Z" transform="translate(-336.41 -265.45)"/><path class="cls-3" d="M-31.16,131.52" transform="translate(-336.41 -265.45)"/></svg>